
<svg xmlns="http://www.w3.org/2000/svg" data-name="Layer 1" width="786.81995" height="572.25773" viewBox="0 0 786.81995 572.25773" xmlns:xlink="http://www.w3.org/1999/xlink"><circle cx="458.32136" cy="74.18162" r="26.70075" fill="#f2f2f2"/><path d="M872.03753,661.02307c39.6877-30.22889,58.64352-81.02332,46.77635-129.48452q-.44231-1.806-.9647-3.60132c-9.3038-32.12833-30.25174-53.34635-55.42846-62.72275l-.187-.04345-.1952.12777c-26.8878,17.31928-44.3363,47.77686-49.15357,85.72729-4.77273,37.65057,3.98175,74.926,24.59252,104.83373Z" transform="translate(-206.59003 -163.87113)" fill="#f2f2f2"/><path d="M864.8,661.1702c-20.68349-31.7223-28.63542-70.26903-22.97429-105.12048,5.742-35.11766,24.24721-64.12662,52.1866-81.85191l.92847,1.43163c-27.20578,17.27841-45.08224,45.5196-50.67892,79.78387-5.50871,33.84035,2.2645,71.27797,22.56129,102.35141Z" transform="translate(-206.59003 -163.87113)" fill="#fff"/><rect x="94.02548" y="44.02567" width="208.1515" height="302.07361" fill="#e6e6e6"/><rect x="130.1598" y="87.21886" width="135.8828" height="215.68723" fill="#fff"/><rect x="149.64249" y="115.73958" width="96.91742" height="9.19599" fill="#e6e6e6"/><rect x="149.64249" y="145.54974" width="96.91742" height="9.19599" fill="#e6e6e6"/><rect x="149.64249" y="175.35991" width="96.91742" height="9.19599" fill="#e6e6e6"/><rect x="149.64249" y="205.17007" width="96.91742" height="9.19599" fill="#e6e6e6"/><rect x="149.64249" y="235.82869" width="96.91742" height="9.19599" fill="#e6e6e6"/><path d="M565.0248,697.21626a95.0656,95.0656,0,0,0-27.24829-72.9761c-13.11362-13.75306-19.18508-34.55432-19.18508-34.55432s19.97315,5.26826,32.19792,23.7357h.84953c13.36914,19.2164,15.92034,46.9743,13.38593,83.79472Z" transform="translate(-206.59003 -163.87113)" fill="#3f3d56"/><path d="M445.24038,697.21626a95.0656,95.0656,0,0,1,27.24829-72.9761c13.11362-13.75306,19.18508-34.55432,19.18508-34.55432s-19.97315,5.26826-32.19792,23.7357h-.84953c-13.36914,19.2164-15.92034,46.9743-13.38593,83.79472Z" transform="translate(-206.59003 -163.87113)" fill="#3f3d56"/><path d="M471.14519,622.72214s-7.38343-73.01709,41.57192-63.89248c15.1118,2.83492,27.91382,17.03395,36.1128,36.17606,4.77577,11.13669,7.54473,24.10155,7.20277,37.87963-.5928,23.92537-8.09654,50.45842-28.58956,72.94971-53.83744,59.20423-56.30142-83.11212-56.30142-83.11212Z" transform="translate(-206.59003 -163.87113)" fill="#3f3d56"/><path d="M472.97059,622.72214s7.38343-73.01709-41.57192-63.89248c-15.1118,2.83492-27.91381,17.03395-36.1128,36.17606-4.77576,11.13669-7.54472,24.10155-7.20277,37.87963.5928,23.92537,8.09655,50.45842,28.58957,72.94971,53.83744,59.20423,56.30142-83.11212,56.30142-83.11212Z" transform="translate(-206.59003 -163.87113)" fill="#3f3d56"/><rect y="568.62625" width="774.96667" height="2.36139" fill="#3f3d56"/><path d="M248.12667,717.387a19.18752,19.18752,0,0,0,28.62921,8.62487l79.52107,32.51391-11.51987-34.35865-75.30813-23.57747a19.2716,19.2716,0,0,0-21.32228,16.79734Z" transform="translate(-206.59003 -163.87113)" fill="#a0616a"/><polygon points="486.708 546.929 473.643 546.928 467.22 494.69 486.71 494.691 486.708 546.929" fill="#a0616a"/><path d="M464.15687,543.415h38.53073a0,0,0,0,1,0,0v24.36182a0,0,0,0,1,0,0H449.77844a0,0,0,0,1,0,0v-9.98337A14.37843,14.37843,0,0,1,464.15687,543.415Z" fill="#2f2e41"/><polygon points="595.151 546.929 582.086 546.928 575.663 494.69 595.154 494.691 595.151 546.929" fill="#a0616a"/><path d="M572.60007,543.415h38.53073a0,0,0,0,1,0,0v24.36182a0,0,0,0,1,0,0H558.22163a0,0,0,0,1,0,0v-9.98337A14.37843,14.37843,0,0,1,572.60007,543.415Z" fill="#2f2e41"/><path d="M560.91135,414.31280H704.20722a0,0,0,0,1,0,0v35.92005a0,0,0,0,1,0,0H560.91135a13.0024,13.0024,0,0,1-13.0024-13.0024V427.3152A13.0024,13.0024,0,0,1,560.91135,414.31280Z" transform="translate(1045.52854 700.67451) rotate(-180)" fill="#3f3d56"/><circle cx="454.4137" cy="261.31368" r="30.08069" fill="#a0616a"/><path d="M573.682,414.97052l29.80152,35.10026c9.32352,10.99487,17.33794,15.14754,27.74475,4.26061a36.5284,36.5284,0,0,0,12.17217-30.75006L636.211,372.97411c-2.44495-14.27677-4.73589-28.91151-17.70081-33.30786l-14.51383-.17144-8.8957-7.45522-22.34976,7.45522-11.87572,10.54482,1.18757,25.48966Z" transform="translate(-206.59003 -163.87113)" fill="#3498db"/><path d="M551.2366,533.20148a12.26456,12.26456,0,0,1,9.10343-15.91308c121.1448-33.017,169.73128-62.25312,188.457-174.48743a12.54153,12.54153,0,0,1,12.30938-10.0958l53.8676.58366a12.41024,12.41024,0,0,1,8.91144,21.3063C770.247,413.414,714.74474,454.389,636.37912,483.63048c-53.34593,19.89942-89.27326,7.29372-89.27326,7.29372L533.33245,667.02857a12.26485,12.26485,0,0,1-9.2358,6.11171,12.01376,12.01376,0,0,1-10.85548-4.0226l-8.81241-11.01873A12.13729,12.13729,0,0,1,503.339,642.437Z" transform="translate(-206.59003 -163.87113)" fill="#2f2e41"/><path d="M588.00649,556.31607a9.44141,9.44141,0,0,0,5.06259-13.4227L621.32417,505.219l-18.15722.37255L580.12128,538.56139a9.49476,9.49476,0,0,0,7.88521,17.75468Z" transform="translate(-206.59003 -163.87113)" fill="#a0616a"/><path d="M677.226,349.96663l5.44522,118.81779a12.39871,12.39871,0,0,1-17.01867,11.8283c-33.53-14.54834-60.45001-26.36887-78.85932-34.85487a12.24375,12.24375,0,0,1-6.43467-8.93654c-3.00351-16.21661-8.56792-64.37151,5.68666-86.0706l1.88791-2.87682Z" transform="translate(-206.59003 -163.87113)" fill="#3498db"/><path d="M642.98373,292.20056a41.82286,41.82286,0,0,1,25.58466-34.31152c12.93067-5.41883,27.0638-4.93981,41.078-2.42,14.01419,2.51948,28.78322,7.16344,42.3215,3.79877a44.1148,44.1148,0,0,1,33.49734,9.73384c14.312,12.592,20.08227,33.38887,35.75339,44.2373,16.5982,11.504,45.2994,5.32841,48.83835,25.89387a28.43157,28.43157,0,0,1-16.36441,29.031c-7.88984,3.381-17.61271,2.52948-24.5686-2.65972-4.72493-3.50213-7.95352-8.86752-10.73438-14.06964a177.28675,177.28675,0,0,1-15.57878-39.42c-3.17261-11.3257-6.10135-23.06673-12.88625-32.83093s-18.90949-17.34241-30.9476-14.55788c-29.3577,6.75344-29.54371,52.81972-56.90617,65.85786-13.711,6.5212-30.48487,3.043-44.26725-3.61567-4.6059-2.22056-9.53204-5.75271-9.55492-10.84639-.02123-4.71991,3.68807-8.55111,7.28566-11.32112a95.9403,95.9403,0,0,1,44.21843-17.651" transform="translate(-206.59003 -163.87113)" fill="#2f2e41"/><circle cx="446.39677" cy="316.88437" r="10.01074" fill="#3498db"/><path d="M647.65189,495.22234a48.21134,48.21134,0,0,0,2.70045-54.34518c4.85952-7.54388,10.56612-14.03717,11.65848-23.03455s-2.70107-19.2038-10.33255-22.644c-7.11643-3.21732-15.21484-1.45741-22.89086-.52417-18.25613,2.221-36.94916,3.457-54.97856-1.16124s-34.96446-17.21895-36.09069-36.58935c-.804-13.84846,1.10739-28.3512,11.81941-38.4318,10.71339-10.07772,27.09108-9.98938,40.8578-5.83428s26.21353,12.219,39.75795,16.51833c8.36481,2.6645,17.48,4.05594,25.88933,2.09387s16.35047-8.72306,16.91335-17.444" transform="translate(-206.59003 -163.87113)" fill="#2f2e41"/></svg>
